<mxfile host="app.diagrams.net" agent="Mozilla/5.0 (Windows NT 10.0; Win64; x64) AppleWebKit/537.36 (KHTML, like Gecko) Chrome/130.0.0.0 Safari/537.36" version="24.8.4">
  <diagram name="Page-1" id="ZlXc4JJeKT-YSYJT2tMZ">
    <mxGraphModel dx="2712" dy="3229" grid="0" gridSize="10" guides="1" tooltips="1" connect="1" arrows="1" fold="1" page="0" pageScale="1" pageWidth="850" pageHeight="1100" math="0" shadow="0">
      <root>
        <mxCell id="0" />
        <mxCell id="1" parent="0" />
        <mxCell id="ZsZD2G39L6w3_N7JC0oh-125" value="" style="edgeStyle=none;curved=1;rounded=0;orthogonalLoop=1;jettySize=auto;html=1;fontSize=12;startSize=8;endSize=8;" edge="1" parent="1" source="ZsZD2G39L6w3_N7JC0oh-123" target="ZsZD2G39L6w3_N7JC0oh-124">
          <mxGeometry relative="1" as="geometry" />
        </mxCell>
        <mxCell id="ZsZD2G39L6w3_N7JC0oh-142" value="&lt;span style=&quot;color: rgb(51, 51, 51); font-family: &amp;quot;Microsoft YaHei&amp;quot;, Helvetica, &amp;quot;Meiryo UI&amp;quot;, &amp;quot;Malgun Gothic&amp;quot;, &amp;quot;Segoe UI&amp;quot;, &amp;quot;Trebuchet MS&amp;quot;, Monaco, monospace, Tahoma, STXihei, 华文细黑, STHeiti, &amp;quot;Helvetica Neue&amp;quot;, &amp;quot;Droid Sans&amp;quot;, &amp;quot;wenquanyi micro hei&amp;quot;, FreeSans, Arimo, Arial, SimSun, 宋体, Heiti, 黑体, sans-serif; font-size: 14px; text-align: left; text-wrap-mode: wrap;&quot;&gt;Main Switch&lt;/span&gt;" style="edgeLabel;html=1;align=center;verticalAlign=middle;resizable=0;points=[];fontSize=12;" vertex="1" connectable="0" parent="ZsZD2G39L6w3_N7JC0oh-125">
          <mxGeometry x="-0.0303" y="2" relative="1" as="geometry">
            <mxPoint as="offset" />
          </mxGeometry>
        </mxCell>
        <mxCell id="ZsZD2G39L6w3_N7JC0oh-123" value="" style="sketch=0;aspect=fixed;pointerEvents=1;shadow=0;dashed=0;html=1;strokeColor=none;labelPosition=center;verticalLabelPosition=bottom;verticalAlign=top;align=center;fillColor=#00188D;shape=mxgraph.mscae.enterprise.router" vertex="1" parent="1">
          <mxGeometry x="-1410.89" y="-2040.5" width="121.79" height="95" as="geometry" />
        </mxCell>
        <mxCell id="ZsZD2G39L6w3_N7JC0oh-124" value="" style="image;html=1;image=img/lib/clip_art/networking/Switch_128x128.png" vertex="1" parent="1">
          <mxGeometry x="-1390" y="-1813.5" width="80" height="80" as="geometry" />
        </mxCell>
        <mxCell id="ZsZD2G39L6w3_N7JC0oh-127" value="" style="verticalLabelPosition=bottom;sketch=0;aspect=fixed;html=1;verticalAlign=top;strokeColor=none;align=center;outlineConnect=0;shape=mxgraph.citrix.desktop;" vertex="1" parent="1">
          <mxGeometry x="-1647" y="-1661.5" width="89" height="98" as="geometry" />
        </mxCell>
        <mxCell id="ZsZD2G39L6w3_N7JC0oh-128" value="" style="verticalLabelPosition=bottom;sketch=0;aspect=fixed;html=1;verticalAlign=top;strokeColor=none;align=center;outlineConnect=0;shape=mxgraph.citrix.desktop;" vertex="1" parent="1">
          <mxGeometry x="-1386" y="-1661.5" width="89" height="98" as="geometry" />
        </mxCell>
        <mxCell id="ZsZD2G39L6w3_N7JC0oh-129" value="" style="verticalLabelPosition=bottom;sketch=0;aspect=fixed;html=1;verticalAlign=top;strokeColor=none;align=center;outlineConnect=0;shape=mxgraph.citrix.desktop;" vertex="1" parent="1">
          <mxGeometry x="-1125" y="-1661.5" width="89" height="98" as="geometry" />
        </mxCell>
        <mxCell id="ZsZD2G39L6w3_N7JC0oh-134" value="" style="endArrow=none;html=1;rounded=0;fontSize=12;startSize=8;endSize=8;curved=1;" edge="1" parent="1">
          <mxGeometry width="50" height="50" relative="1" as="geometry">
            <mxPoint x="-1611" y="-1776" as="sourcePoint" />
            <mxPoint x="-1403.5" y="-1771" as="targetPoint" />
          </mxGeometry>
        </mxCell>
        <mxCell id="ZsZD2G39L6w3_N7JC0oh-135" value="" style="endArrow=none;html=1;rounded=0;fontSize=12;startSize=8;endSize=8;curved=1;" edge="1" parent="1">
          <mxGeometry width="50" height="50" relative="1" as="geometry">
            <mxPoint x="-1301" y="-1776" as="sourcePoint" />
            <mxPoint x="-1094" y="-1770.5" as="targetPoint" />
          </mxGeometry>
        </mxCell>
        <mxCell id="ZsZD2G39L6w3_N7JC0oh-136" value="" style="endArrow=none;html=1;rounded=0;fontSize=12;startSize=8;endSize=8;curved=1;" edge="1" parent="1">
          <mxGeometry width="50" height="50" relative="1" as="geometry">
            <mxPoint x="-1613" y="-1775.5" as="sourcePoint" />
            <mxPoint x="-1615" y="-1670.5" as="targetPoint" />
          </mxGeometry>
        </mxCell>
        <mxCell id="ZsZD2G39L6w3_N7JC0oh-139" value="&lt;span style=&quot;color: rgb(51, 51, 51); font-family: &amp;quot;Microsoft YaHei&amp;quot;, Helvetica, &amp;quot;Meiryo UI&amp;quot;, &amp;quot;Malgun Gothic&amp;quot;, &amp;quot;Segoe UI&amp;quot;, &amp;quot;Trebuchet MS&amp;quot;, Monaco, monospace, Tahoma, STXihei, 华文细黑, STHeiti, &amp;quot;Helvetica Neue&amp;quot;, &amp;quot;Droid Sans&amp;quot;, &amp;quot;wenquanyi micro hei&amp;quot;, FreeSans, Arimo, Arial, SimSun, 宋体, Heiti, 黑体, sans-serif; font-size: 14px; text-align: left; text-wrap-mode: wrap;&quot;&gt;Employee PC 1&lt;/span&gt;" style="edgeLabel;html=1;align=center;verticalAlign=middle;resizable=0;points=[];fontSize=12;" vertex="1" connectable="0" parent="ZsZD2G39L6w3_N7JC0oh-136">
          <mxGeometry x="0.2757" y="1" relative="1" as="geometry">
            <mxPoint as="offset" />
          </mxGeometry>
        </mxCell>
        <mxCell id="ZsZD2G39L6w3_N7JC0oh-137" value="" style="endArrow=none;html=1;rounded=0;fontSize=12;startSize=8;endSize=8;curved=1;" edge="1" parent="1" source="ZsZD2G39L6w3_N7JC0oh-124">
          <mxGeometry width="50" height="50" relative="1" as="geometry">
            <mxPoint x="-1351" y="-1726.5" as="sourcePoint" />
            <mxPoint x="-1349" y="-1669.5" as="targetPoint" />
          </mxGeometry>
        </mxCell>
        <mxCell id="ZsZD2G39L6w3_N7JC0oh-140" value="&lt;span style=&quot;color: rgb(51, 51, 51); font-family: &amp;quot;Microsoft YaHei&amp;quot;, Helvetica, &amp;quot;Meiryo UI&amp;quot;, &amp;quot;Malgun Gothic&amp;quot;, &amp;quot;Segoe UI&amp;quot;, &amp;quot;Trebuchet MS&amp;quot;, Monaco, monospace, Tahoma, STXihei, 华文细黑, STHeiti, &amp;quot;Helvetica Neue&amp;quot;, &amp;quot;Droid Sans&amp;quot;, &amp;quot;wenquanyi micro hei&amp;quot;, FreeSans, Arimo, Arial, SimSun, 宋体, Heiti, 黑体, sans-serif; font-size: 14px; text-align: left; text-wrap-mode: wrap;&quot;&gt;Employee PC 2&lt;/span&gt;" style="edgeLabel;html=1;align=center;verticalAlign=middle;resizable=0;points=[];fontSize=12;" vertex="1" connectable="0" parent="ZsZD2G39L6w3_N7JC0oh-137">
          <mxGeometry x="0.1251" relative="1" as="geometry">
            <mxPoint as="offset" />
          </mxGeometry>
        </mxCell>
        <mxCell id="ZsZD2G39L6w3_N7JC0oh-138" value="" style="endArrow=none;html=1;rounded=0;fontSize=12;startSize=8;endSize=8;curved=1;" edge="1" parent="1">
          <mxGeometry width="50" height="50" relative="1" as="geometry">
            <mxPoint x="-1096" y="-1669.5" as="sourcePoint" />
            <mxPoint x="-1094" y="-1770" as="targetPoint" />
          </mxGeometry>
        </mxCell>
        <mxCell id="ZsZD2G39L6w3_N7JC0oh-141" value="&lt;span style=&quot;color: rgb(51, 51, 51); font-family: &amp;quot;Microsoft YaHei&amp;quot;, Helvetica, &amp;quot;Meiryo UI&amp;quot;, &amp;quot;Malgun Gothic&amp;quot;, &amp;quot;Segoe UI&amp;quot;, &amp;quot;Trebuchet MS&amp;quot;, Monaco, monospace, Tahoma, STXihei, 华文细黑, STHeiti, &amp;quot;Helvetica Neue&amp;quot;, &amp;quot;Droid Sans&amp;quot;, &amp;quot;wenquanyi micro hei&amp;quot;, FreeSans, Arimo, Arial, SimSun, 宋体, Heiti, 黑体, sans-serif; font-size: 14px; text-align: left; text-wrap-mode: wrap;&quot;&gt;Employee PC 3&lt;/span&gt;" style="edgeLabel;html=1;align=center;verticalAlign=middle;resizable=0;points=[];fontSize=12;" vertex="1" connectable="0" parent="ZsZD2G39L6w3_N7JC0oh-138">
          <mxGeometry x="-0.4343" relative="1" as="geometry">
            <mxPoint as="offset" />
          </mxGeometry>
        </mxCell>
        <mxCell id="ZsZD2G39L6w3_N7JC0oh-143" value="" style="endArrow=none;html=1;rounded=0;fontSize=12;startSize=8;endSize=8;curved=1;" edge="1" parent="1">
          <mxGeometry width="50" height="50" relative="1" as="geometry">
            <mxPoint x="-1348" y="-2027.5" as="sourcePoint" />
            <mxPoint x="-1348.24" y="-2112.5" as="targetPoint" />
          </mxGeometry>
        </mxCell>
        <mxCell id="ZsZD2G39L6w3_N7JC0oh-144" value="&lt;span style=&quot;color: rgb(51, 51, 51); font-family: &amp;quot;Microsoft YaHei&amp;quot;, Helvetica, &amp;quot;Meiryo UI&amp;quot;, &amp;quot;Malgun Gothic&amp;quot;, &amp;quot;Segoe UI&amp;quot;, &amp;quot;Trebuchet MS&amp;quot;, Monaco, monospace, Tahoma, STXihei, 华文细黑, STHeiti, &amp;quot;Helvetica Neue&amp;quot;, &amp;quot;Droid Sans&amp;quot;, &amp;quot;wenquanyi micro hei&amp;quot;, FreeSans, Arimo, Arial, SimSun, 宋体, Heiti, 黑体, sans-serif; font-size: 14px; text-align: left; text-wrap-mode: wrap;&quot;&gt;Office Route&lt;/span&gt;" style="text;html=1;align=center;verticalAlign=middle;resizable=0;points=[];autosize=1;strokeColor=none;fillColor=none;fontSize=16;" vertex="1" parent="1">
          <mxGeometry x="-1395.5" y="-2150" width="101" height="31" as="geometry" />
        </mxCell>
        <mxCell id="ZsZD2G39L6w3_N7JC0oh-145" value="" style="endArrow=none;html=1;rounded=0;fontSize=12;startSize=8;endSize=8;curved=1;" edge="1" parent="1">
          <mxGeometry width="50" height="50" relative="1" as="geometry">
            <mxPoint x="-1297" y="-1792" as="sourcePoint" />
            <mxPoint x="-1210" y="-1879" as="targetPoint" />
          </mxGeometry>
        </mxCell>
        <mxCell id="ZsZD2G39L6w3_N7JC0oh-147" value="&lt;span style=&quot;color: rgb(51, 51, 51); font-family: &amp;quot;Microsoft YaHei&amp;quot;, Helvetica, &amp;quot;Meiryo UI&amp;quot;, &amp;quot;Malgun Gothic&amp;quot;, &amp;quot;Segoe UI&amp;quot;, &amp;quot;Trebuchet MS&amp;quot;, Monaco, monospace, Tahoma, STXihei, 华文细黑, STHeiti, &amp;quot;Helvetica Neue&amp;quot;, &amp;quot;Droid Sans&amp;quot;, &amp;quot;wenquanyi micro hei&amp;quot;, FreeSans, Arimo, Arial, SimSun, 宋体, Heiti, 黑体, sans-serif; font-size: 14px; text-align: left; text-wrap-mode: wrap;&quot;&gt;Office WAP&lt;/span&gt;" style="edgeLabel;html=1;align=center;verticalAlign=middle;resizable=0;points=[];fontSize=12;" vertex="1" connectable="0" parent="ZsZD2G39L6w3_N7JC0oh-145">
          <mxGeometry x="0.0575" y="-3" relative="1" as="geometry">
            <mxPoint as="offset" />
          </mxGeometry>
        </mxCell>
        <mxCell id="ZsZD2G39L6w3_N7JC0oh-146" value="" style="points=[[0.03,0.36,0],[0.18,0,0],[0.5,0.34,0],[0.82,0,0],[0.97,0.36,0],[1,0.67,0],[0.975,0.975,0],[0.5,1,0],[0.025,0.975,0],[0,0.67,0]];verticalLabelPosition=bottom;sketch=0;html=1;verticalAlign=top;aspect=fixed;align=center;pointerEvents=1;shape=mxgraph.cisco19.wireless_access_point;fillColor=#005073;strokeColor=none;" vertex="1" parent="1">
          <mxGeometry x="-1189" y="-1945.5" width="50" height="50" as="geometry" />
        </mxCell>
        <mxCell id="ZsZD2G39L6w3_N7JC0oh-148" value="" style="verticalLabelPosition=bottom;sketch=0;aspect=fixed;html=1;verticalAlign=top;strokeColor=none;align=center;outlineConnect=0;shape=mxgraph.citrix.laptop_2;" vertex="1" parent="1">
          <mxGeometry x="-1071" y="-2140" width="82.47" height="61.5" as="geometry" />
        </mxCell>
        <mxCell id="ZsZD2G39L6w3_N7JC0oh-149" value="" style="verticalLabelPosition=bottom;sketch=0;aspect=fixed;html=1;verticalAlign=top;strokeColor=none;align=center;outlineConnect=0;shape=mxgraph.citrix.laptop_2;" vertex="1" parent="1">
          <mxGeometry x="-932" y="-2045" width="91.19" height="68" as="geometry" />
        </mxCell>
        <mxCell id="ZsZD2G39L6w3_N7JC0oh-150" value="" style="endArrow=none;dashed=1;html=1;dashPattern=1 3;strokeWidth=2;rounded=0;fontSize=12;startSize=8;endSize=8;curved=1;exitX=1;exitY=0.67;exitDx=0;exitDy=0;exitPerimeter=0;" edge="1" parent="1" source="ZsZD2G39L6w3_N7JC0oh-146" target="ZsZD2G39L6w3_N7JC0oh-149">
          <mxGeometry width="50" height="50" relative="1" as="geometry">
            <mxPoint x="-1129" y="-1895.5" as="sourcePoint" />
            <mxPoint x="-1079" y="-1945.5" as="targetPoint" />
          </mxGeometry>
        </mxCell>
        <mxCell id="ZsZD2G39L6w3_N7JC0oh-153" value="&lt;span style=&quot;color: rgb(51, 51, 51); font-family: &amp;quot;Microsoft YaHei&amp;quot;, Helvetica, &amp;quot;Meiryo UI&amp;quot;, &amp;quot;Malgun Gothic&amp;quot;, &amp;quot;Segoe UI&amp;quot;, &amp;quot;Trebuchet MS&amp;quot;, Monaco, monospace, Tahoma, STXihei, 华文细黑, STHeiti, &amp;quot;Helvetica Neue&amp;quot;, &amp;quot;Droid Sans&amp;quot;, &amp;quot;wenquanyi micro hei&amp;quot;, FreeSans, Arimo, Arial, SimSun, 宋体, Heiti, 黑体, sans-serif; font-size: 14px; text-align: left; text-wrap-mode: wrap;&quot;&gt;Employee Laptop 2&lt;/span&gt;" style="edgeLabel;html=1;align=center;verticalAlign=middle;resizable=0;points=[];fontSize=12;" vertex="1" connectable="0" parent="ZsZD2G39L6w3_N7JC0oh-150">
          <mxGeometry x="-0.0228" y="2" relative="1" as="geometry">
            <mxPoint as="offset" />
          </mxGeometry>
        </mxCell>
        <mxCell id="ZsZD2G39L6w3_N7JC0oh-151" value="" style="endArrow=none;dashed=1;html=1;dashPattern=1 3;strokeWidth=2;rounded=0;fontSize=12;startSize=8;endSize=8;curved=1;exitX=0.5;exitY=0.34;exitDx=0;exitDy=0;exitPerimeter=0;" edge="1" parent="1" source="ZsZD2G39L6w3_N7JC0oh-146" target="ZsZD2G39L6w3_N7JC0oh-148">
          <mxGeometry width="50" height="50" relative="1" as="geometry">
            <mxPoint x="-1157" y="-1945.5" as="sourcePoint" />
            <mxPoint x="-1107" y="-1995.5" as="targetPoint" />
          </mxGeometry>
        </mxCell>
        <mxCell id="ZsZD2G39L6w3_N7JC0oh-152" value="&lt;span style=&quot;color: rgb(51, 51, 51); font-family: &amp;quot;Microsoft YaHei&amp;quot;, Helvetica, &amp;quot;Meiryo UI&amp;quot;, &amp;quot;Malgun Gothic&amp;quot;, &amp;quot;Segoe UI&amp;quot;, &amp;quot;Trebuchet MS&amp;quot;, Monaco, monospace, Tahoma, STXihei, 华文细黑, STHeiti, &amp;quot;Helvetica Neue&amp;quot;, &amp;quot;Droid Sans&amp;quot;, &amp;quot;wenquanyi micro hei&amp;quot;, FreeSans, Arimo, Arial, SimSun, 宋体, Heiti, 黑体, sans-serif; font-size: 14px; text-align: left; text-wrap-mode: wrap;&quot;&gt;Employee Laptop 1&lt;/span&gt;" style="edgeLabel;html=1;align=center;verticalAlign=middle;resizable=0;points=[];fontSize=12;" vertex="1" connectable="0" parent="ZsZD2G39L6w3_N7JC0oh-151">
          <mxGeometry x="0.3598" y="-3" relative="1" as="geometry">
            <mxPoint as="offset" />
          </mxGeometry>
        </mxCell>
      </root>
    </mxGraphModel>
  </diagram>
</mxfile>
